<svg width="26" height="28" viewBox="0 0 26 28" fill="none" xmlns="http://www.w3.org/2000/svg">
<path d="M4.31983 23.7588C3.51884 23.7588 2.77038 23.483 2.23201 22.9709C1.5492 22.3274 1.22093 21.3558 1.33911 20.3053L1.82495 16.0509C1.91687 15.2499 2.40271 14.1863 2.96734 13.6085L13.7478 2.19783C16.4397 -0.651583 19.2497 -0.730368 22.0991 1.96147C24.9485 4.65331 25.0273 7.46332 22.3354 10.3127L11.555 21.7234C11.0035 22.3143 9.97925 22.8658 9.17826 22.9972L4.95011 23.7193C4.72688 23.7324 4.52992 23.7588 4.31983 23.7588ZM17.9629 1.94834C16.9518 1.94834 16.072 2.57862 15.1791 3.52405L4.39861 14.948C4.13599 15.2238 3.83398 15.8803 3.78146 16.2611L3.29561 20.5154C3.24309 20.9487 3.34814 21.3032 3.58449 21.5265C3.82085 21.7497 4.17539 21.8285 4.60871 21.7628L8.83686 21.0407C9.21765 20.9751 9.84794 20.6336 10.1106 20.3578L20.891 8.94711C22.5193 7.21383 23.1102 5.61186 20.7335 3.37961C19.683 2.36853 18.777 1.94834 17.9629 1.94834Z" fill="#CB8031"/>
<path d="M19.815 12.5052C19.7887 12.5052 19.7493 12.5052 19.7231 12.5052C15.6262 12.0982 12.3304 8.98622 11.7001 4.91564C11.6213 4.37727 11.989 3.8783 12.5273 3.78638C13.0657 3.7076 13.5647 4.07526 13.6566 4.61363C14.1556 7.79131 16.7292 10.2337 19.9332 10.5488C20.4715 10.6013 20.8655 11.0872 20.8129 11.6255C20.7473 12.1244 20.314 12.5052 19.815 12.5052Z" fill="#CB8031"/>
<path d="M24.6205 28H0.984818C0.446451 28 0 27.5535 0 27.0152C0 26.4768 0.446451 26.0303 0.984818 26.0303H24.6205C25.1588 26.0303 25.6053 26.4768 25.6053 27.0152C25.6053 27.5535 25.1588 28 24.6205 28Z" fill="#CB8031"/>
</svg>
