<svg width="90" height="90" viewBox="0 0 90 90" fill="none" xmlns="http://www.w3.org/2000/svg">
<path d="M45.5042 51.4047C45.4205 51.4047 45.2949 51.4047 45.2112 51.4047C45.0856 51.4047 44.9181 51.4047 44.7926 51.4047C35.2901 51.1116 28.1738 43.7023 28.1738 34.5767C28.1738 25.2837 35.7506 17.7069 45.0437 17.7069C54.3367 17.7069 61.9135 25.2837 61.9135 34.5767C61.8716 43.7442 54.7135 51.1116 45.6298 51.4047C45.546 51.4047 45.546 51.4047 45.5042 51.4047ZM45.0019 23.9441C39.1414 23.9441 34.411 28.7162 34.411 34.5348C34.411 40.2698 38.8902 44.9163 44.5833 45.1256C44.7088 45.0837 45.1274 45.0837 45.546 45.1256C51.1553 44.8326 55.5507 40.2279 55.5926 34.5348C55.5926 28.7162 50.8623 23.9441 45.0019 23.9441Z" fill="black" fill-opacity="0.8"/>
<path d="M45.0037 90.0005C33.7433 90.0005 22.9851 85.8144 14.6549 78.1958C13.9014 77.526 13.5665 76.5214 13.6503 75.5586C14.1944 70.5772 17.2921 65.9307 22.441 62.4981C34.9154 54.2098 55.1339 54.2098 67.5665 62.4981C72.7153 65.9726 75.813 70.5772 76.3572 75.5586C76.4828 76.5633 76.106 77.526 75.3525 78.1958C67.0223 85.8144 56.2642 90.0005 45.0037 90.0005ZM20.2223 74.7214C27.1712 80.54 35.92 83.7214 45.0037 83.7214C54.0874 83.7214 62.8363 80.54 69.7851 74.7214C69.0316 72.1679 67.0223 69.6981 64.0502 67.6888C53.7525 60.8237 36.2968 60.8237 25.9154 67.6888C22.9433 69.6981 20.9758 72.1679 20.2223 74.7214Z" fill="black" fill-opacity="0.8"/>
<path d="M45 90C20.1767 90 0 69.8233 0 45C0 20.1767 20.1767 0 45 0C69.8233 0 90 20.1767 90 45C90 69.8233 69.8233 90 45 90ZM45 6.27907C23.6512 6.27907 6.27907 23.6512 6.27907 45C6.27907 66.3488 23.6512 83.7209 45 83.7209C66.3488 83.7209 83.7209 66.3488 83.7209 45C83.7209 23.6512 66.3488 6.27907 45 6.27907Z" fill="black" fill-opacity="0.8"/>
</svg>
